<?xml version="1.0" encoding="UTF-8"?>
<svg id="Artwork" xmlns="http://www.w3.org/2000/svg" xmlns:xlink="http://www.w3.org/1999/xlink" viewBox="0 0 959.76 540">
  <defs>
    <style>
      .cls-1 {
        fill: #203d4f;
      }

      .cls-2 {
        stroke-width: 2.55px;
      }

      .cls-2, .cls-3, .cls-4, .cls-5, .cls-6, .cls-7, .cls-8, .cls-9, .cls-10, .cls-11, .cls-12, .cls-13, .cls-14, .cls-15, .cls-16, .cls-17, .cls-18, .cls-19, .cls-20 {
        fill: none;
        stroke: #213d4f;
      }

      .cls-2, .cls-3, .cls-6, .cls-7, .cls-8, .cls-9, .cls-10, .cls-11, .cls-12, .cls-13, .cls-14, .cls-15, .cls-16, .cls-17, .cls-18, .cls-19, .cls-20 {
        stroke-miterlimit: 10;
      }

      .cls-21 {
        fill: #f6a294;
      }

      .cls-3 {
        fill-rule: evenodd;
        stroke-width: 1.25px;
      }

      .cls-22 {
        fill: #f4c23d;
      }

      .cls-4 {
        stroke-width: .91px;
      }

      .cls-4, .cls-5 {
        stroke-linecap: round;
        stroke-linejoin: round;
      }

      .cls-5 {
        stroke-width: 1.58px;
      }

      .cls-6 {
        stroke-width: 2.27px;
      }

      .cls-7 {
        stroke-width: 2.38px;
      }

      .cls-8 {
        stroke-width: 2px;
      }

      .cls-9 {
        stroke-width: 2px;
      }

      .cls-10 {
        stroke-width: 2.19px;
      }

      .cls-23 {
        fill: #72994e;
      }

      .cls-11 {
        stroke-width: 1.9px;
      }

      .cls-12 {
        stroke-width: 1.99px;
      }

      .cls-13 {
        stroke-width: 1.93px;
      }

      .cls-24 {
        clip-path: url(#clippath-1);
      }

      .cls-25 {
        fill: #94bcbe;
      }

      .cls-14 {
        stroke-width: 1.78px;
      }

      .cls-15 {
        stroke-width: 1.76px;
      }

      .cls-16 {
        stroke-width: 1.54px;
      }

      .cls-17 {
        stroke-width: 1.45px;
      }

      .cls-18 {
        stroke-width: 1.42px;
      }

      .cls-19 {
        stroke-width: 1.64px;
      }

      .cls-20 {
        stroke-width: 1.61px;
      }

      .cls-26 {
        fill: #213d4f;
      }

      .cls-27 {
        fill: #94bdbf;
      }

      .cls-28 {
        opacity: 0;
      }

      .cls-29 {
        clip-path: url(#clippath);
      }
    </style>
    <clipPath id="clippath">
      <rect class="cls-26" x="-6.04" y="-4.01" width="971.32" height="551.94"/>
    </clipPath>
    <clipPath id="clippath-1">
      <rect class="cls-27" x="-1028.14" y="-4.01" width="965.89" height="548.01"/>
    </clipPath>
  </defs>
  <g>
    <rect class="cls-26" x="-6.04" y="-4.01" width="971.32" height="551.94"/>
    <g class="cls-29">
      <g>
        <polygon class="cls-22" points="-162.36 197.31 -28.06 124.62 106.24 197.31 -28.06 270 -162.36 197.31"/>
        <polygon class="cls-1" points="106.24 197.31 106.24 342.69 -28.06 415.38 -28.06 270 106.24 197.31"/>
        <polygon class="cls-22" points="39.09 306.34 173.39 233.66 307.7 306.34 173.39 379.03 39.09 306.34"/>
        <polygon class="cls-26" points="39.09 306.34 173.39 379.03 173.39 524.41 39.09 451.72 39.09 306.34"/>
        <polygon class="cls-25" points="307.7 306.34 307.7 451.72 173.39 524.41 173.39 379.03 307.7 306.34"/>
        <polygon class="cls-21" points="-162.36 415.38 -28.06 342.69 106.24 415.38 -28.06 488.06 -162.36 415.38"/>
        <polygon class="cls-23" points="106.24 415.38 106.24 560.75 -28.06 633.44 -28.06 488.06 106.24 415.38"/>
        <polygon class="cls-22" points="-162.36 -20.75 -28.06 -93.44 106.24 -20.75 -28.06 51.94 -162.36 -20.75"/>
        <polygon class="cls-25" points="106.24 -20.75 106.24 124.62 -28.06 197.31 -28.06 51.94 106.24 -20.75"/>
        <polygon class="cls-21" points="39.09 88.28 173.39 15.59 307.7 88.28 173.39 160.97 39.09 88.28"/>
        <polygon class="cls-26" points="39.09 88.28 173.39 160.97 173.39 306.34 39.09 233.66 39.09 88.28"/>
        <polygon class="cls-23" points="307.7 88.28 307.7 233.66 173.39 306.34 173.39 160.97 307.7 88.28"/>
        <polygon class="cls-22" points="-162.36 197.31 -28.06 124.62 106.24 197.31 -28.06 270 -162.36 197.31"/>
        <polygon class="cls-25" points="106.24 197.31 106.24 342.69 -28.06 415.38 -28.06 270 106.24 197.31"/>
      </g>
      <g>
        <g>
          <path class="cls-26" d="M25,510.91c0-1.81,1.43-2.85,3.09-2.85.87,0,1.56.33,2.01.76l-.6.8c-.43-.34-.85-.52-1.34-.52-1.09,0-1.84.72-1.84,1.81s.74,1.8,1.8,1.8c.62,0,1.13-.27,1.55-.6l.53.82c-.63.54-1.42.82-2.19.82-1.7,0-3-1.04-3-2.84Z"/>
          <path class="cls-26" d="M31.19,510.91c0-1.81,1.3-2.85,2.73-2.85s2.73,1.04,2.73,2.85-1.3,2.84-2.73,2.84-2.73-1.04-2.73-2.84ZM35.34,510.91c0-1.09-.53-1.81-1.42-1.81s-1.42.72-1.42,1.81.53,1.8,1.42,1.8,1.42-.71,1.42-1.8Z"/>
          <path class="cls-26" d="M37.93,508.19h1.04l.1.82h.04c.52-.53,1.13-.95,1.96-.95,1.26,0,1.82.8,1.82,2.2v3.36h-1.28v-3.2c0-.87-.28-1.27-1.01-1.27-.54,0-.9.26-1.4.76v3.7h-1.28v-5.43Z"/>
          <path class="cls-26" d="M44.23,508.25l1.53-.06h3.3v1.01h-4.83v-.95ZM45.72,507.89c0-1.28.71-2.21,2.31-2.21.58,0,1.12.12,1.6.3l-.26.95c-.39-.16-.76-.23-1.2-.23-.83,0-1.19.42-1.19,1.18v5.75h-1.27v-5.73Z"/>
          <path class="cls-26" d="M52.21,510.54c0-2.11.92-3.8,2.41-5.04l.71.59c-1.4,1.27-2.02,2.64-2.02,4.44s.62,3.18,2.02,4.44l-.71.59c-1.49-1.23-2.41-2.93-2.41-5.04Z"/>
          <path class="cls-26" d="M56.53,512.88c2.2-1.9,3.53-3.11,3.53-4.2,0-.74-.45-1.21-1.34-1.21-.61,0-1.12.36-1.55.78l-.71-.7c.69-.69,1.39-1.09,2.42-1.09,1.45,0,2.39.86,2.39,2.16s-1.27,2.54-2.9,4c.42-.04.9-.07,1.3-.07h1.98v1.08h-5.12v-.74Z"/>
          <path class="cls-26" d="M63.15,510.07c0-2.38,1.02-3.63,2.62-3.63s2.62,1.25,2.62,3.63-1.02,3.68-2.62,3.68-2.62-1.31-2.62-3.68ZM67.22,510.07c0-1.92-.62-2.62-1.46-2.62s-1.46.7-1.46,2.62.62,2.67,1.46,2.67,1.46-.75,1.46-2.67ZM65,510.02c0-.48.34-.79.76-.79s.76.3.76.79-.34.79-.76.79-.76-.3-.76-.79Z"/>
          <path class="cls-26" d="M69.58,512.88c2.2-1.9,3.53-3.11,3.53-4.2,0-.74-.45-1.21-1.34-1.21-.61,0-1.12.36-1.55.78l-.71-.7c.69-.69,1.39-1.09,2.42-1.09,1.45,0,2.39.86,2.39,2.16s-1.27,2.54-2.9,4c.42-.04.9-.07,1.3-.07h1.98v1.08h-5.12v-.74Z"/>
          <path class="cls-26" d="M75.83,512.78l.6-.82c.47.4,1.02.75,1.82.75.89,0,1.57-.5,1.57-1.35s-.61-1.31-1.5-1.31c-.53,0-.82.12-1.31.39l-.61-.39.21-3.47h4.15v1.09h-3.04l-.15,1.69c.36-.14.67-.22,1.11-.22,1.32,0,2.42.69,2.42,2.2s-1.28,2.42-2.68,2.42c-1.24,0-2.02-.46-2.58-.97Z"/>
          <path class="cls-26" d="M82.39,514.98c1.4-1.27,2.02-2.64,2.02-4.44s-.62-3.18-2.02-4.44l.71-.59c1.49,1.23,2.41,2.93,2.41,5.04s-.92,3.8-2.41,5.04l-.71-.59Z"/>
        </g>
        <g>
          <path class="cls-26" d="M46.59,485.65c4.24,0,7.23,2.89,7.23,6.9s-2.99,6.88-7.23,6.88-7.18-2.89-7.18-6.88,2.94-6.9,7.18-6.9M46.59,495.97c2.02,0,3.4-1.28,3.4-3.42s-1.53-3.45-3.4-3.45-3.35,1.25-3.35,3.45c0,1.94,1.35,3.42,3.35,3.42"/>
          <path class="cls-26" d="M70.13,480.21c1.2,0,2.07.86,2.07,2,0,1.19-.87,2.05-2.07,2.05-1.3,0-2.1-.86-2.1-2.05s.87-2,2.1-2M68.26,485.9h3.71v13.29h-3.71v-13.29Z"/>
          <path class="cls-26" d="M73.64,485.9h2.53v-3.09h3.71v3.09h4v3.45h-4v4.32c0,1.61.36,2.22,1.35,2.22.87,0,1.56-.31,2.27-.87l1.89,2.34c-.92.97-2.71,1.98-4.52,1.98-2.79,0-4.7-1.51-4.7-4.58v-5.42h-2.53v-3.45Z"/>
          <path class="cls-26" d="M66.34,487.52c-.91-.87-2.79-2-5.47-2-3.81,0-6.05,1.58-6.05,4.16,0,4.01,6.39,4.11,7.9,4.99.27.15.43.36.34.67-.28.89-3.86,1.32-6.5-1.23l-2.15,2.57c.96,1.27,3.07,2.76,6.51,2.76,3.19,0,5.94-1.29,5.94-4.24,0-2.64-2.46-3.7-4.65-4.32-.62-.17-1.22-.31-1.74-.45-.86-.22-2.02-.47-1.83-1.11.34-1.17,4.18-.44,5.52.79l2.2-2.59Z"/>
          <path class="cls-26" d="M24.98,485.93h3.71v.69c.69-.64,1.95-.97,2.97-.97,4.05,0,6.55,2.79,6.55,6.73s-2.61,7.07-6.66,7.07c-1.28,0-2.46-.2-2.87-.67v5.58h-3.71v-18.43ZM28.69,490.61v4.25c.41.61,1.31,1.13,2.36,1.13,2.07,0,3.33-1.31,3.33-3.33,0-2.36-1.18-3.56-3.12-3.56-1.23,0-2.07.61-2.56,1.51"/>
        </g>
      </g>
    </g>
  </g>
  <g>
    <rect class="cls-27" x="-1028.14" y="-4.01" width="965.89" height="548.01"/>
    <g class="cls-24">
      <g>
        <polyline class="cls-17" points="202.77 398.74 228.77 398.74 228.77 416.48 228.49 444.41"/>
        <polyline class="cls-17" points="232.89 412.35 258.89 412.35 258.89 449.08"/>
        <line class="cls-17" x1="141.28" y1="413.32" x2="157.79" y2="413.32"/>
        <g>
          <circle class="cls-26" cx="207.34" cy="402.36" r=".7"/>
          <circle class="cls-26" cx="213.11" cy="402.36" r=".7"/>
          <path class="cls-26" d="M216.69,402.37c0,.39-.31.7-.7.7s-.7-.31-.7-.7.31-.7.7-.7.7.31.7.7Z"/>
          <path class="cls-26" d="M208.04,406.34c0,.39-.31.7-.7.7s-.7-.31-.7-.7.31-.7.7-.7.7.31.7.7Z"/>
          <path class="cls-26" d="M213.8,406.35c0,.39-.31.7-.7.7s-.7-.31-.7-.7.31-.7.7-.7.7.31.7.7Z"/>
          <path class="cls-26" d="M216.69,406.35c0,.39-.31.7-.7.7s-.7-.31-.7-.7.31-.7.7-.7.7.31.7.7Z"/>
          <path class="cls-26" d="M210.92,410.33c0,.39-.31.7-.7.7s-.7-.31-.7-.7.31-.7.7-.7.7.31.7.7Z"/>
          <circle class="cls-26" cx="213.11" cy="410.33" r=".7"/>
          <path class="cls-26" d="M208.04,414.31c0,.39-.31.7-.7.7s-.7-.31-.7-.7.31-.7.7-.7.7.31.7.7Z"/>
          <path class="cls-26" d="M213.8,414.31c0,.39-.31.7-.7.7s-.7-.31-.7-.7.31-.7.7-.7.7.31.7.7Z"/>
          <path class="cls-26" d="M216.69,414.31c0,.39-.31.7-.7.7s-.7-.31-.7-.7.31-.7.7-.7.7.31.7.7Z"/>
          <path class="cls-26" d="M210.92,418.29c0,.39-.31.7-.7.7s-.7-.31-.7-.7.31-.7.7-.7.7.31.7.7Z"/>
          <circle class="cls-26" cx="213.11" cy="418.29" r=".7"/>
          <path class="cls-26" d="M216.69,418.29c0,.39-.31.7-.7.7s-.7-.31-.7-.7.31-.7.7-.7.7.31.7.7Z"/>
          <path class="cls-26" d="M208.04,422.27c0,.39-.31.7-.7.7s-.7-.31-.7-.7.31-.7.7-.7.7.31.7.7Z"/>
          <path class="cls-26" d="M216.69,422.28c0,.39-.31.7-.7.7s-.7-.31-.7-.7.31-.7.7-.7.7.31.7.7Z"/>
          <circle class="cls-26" cx="207.34" cy="426.25" r=".7"/>
          <circle class="cls-26" cx="213.11" cy="426.26" r=".7"/>
          <path class="cls-26" d="M216.69,426.26c0,.39-.31.7-.7.7s-.7-.31-.7-.7.31-.7.7-.7.7.31.7.7Z"/>
          <path class="cls-26" d="M210.92,430.24c0,.39-.31.7-.7.7s-.7-.31-.7-.7.31-.7.7-.7.7.31.7.7Z"/>
          <path class="cls-26" d="M213.8,430.24c0,.39-.31.7-.7.7s-.7-.31-.7-.7.31-.7.7-.7.7.31.7.7Z"/>
          <path class="cls-26" d="M216.69,430.24c0,.39-.31.7-.7.7s-.7-.31-.7-.7.31-.7.7-.7.7.31.7.7Z"/>
          <circle class="cls-26" cx="207.34" cy="434.22" r=".7"/>
          <path class="cls-26" d="M210.92,434.22c0,.39-.31.7-.7.7s-.7-.31-.7-.7.31-.7.7-.7.7.31.7.7Z"/>
          <path class="cls-26" d="M216.69,434.22c0,.39-.31.7-.7.7s-.7-.31-.7-.7.31-.7.7-.7.7.31.7.7Z"/>
          <path class="cls-26" d="M213.8,438.2c0,.39-.31.7-.7.7s-.7-.31-.7-.7.31-.7.7-.7.7.31.7.7Z"/>
          <path class="cls-26" d="M216.69,438.21c0,.39-.31.7-.7.7s-.7-.31-.7-.7.31-.7.7-.7.7.31.7.7Z"/>
          <circle class="cls-26" cx="207.34" cy="442.18" r=".7"/>
          <circle class="cls-26" cx="213.1" cy="442.19" r=".7"/>
          <path class="cls-26" d="M216.69,442.19c0,.39-.31.7-.7.7s-.7-.31-.7-.7.31-.7.7-.7.7.31.7.7Z"/>
          <path class="cls-26" d="M221.22,406.35c0,.39-.31.7-.7.7s-.7-.31-.7-.7.31-.7.7-.7.7.31.7.7Z"/>
          <path class="cls-26" d="M224.1,406.35c0,.39-.31.7-.7.7s-.7-.31-.7-.7.31-.7.7-.7.7.31.7.7Z"/>
          <path class="cls-26" d="M226.99,406.35c0,.39-.31.7-.7.7s-.7-.31-.7-.7.31-.7.7-.7.7.31.7.7Z"/>
          <path class="cls-26" d="M221.22,410.33c0,.39-.31.7-.7.7s-.7-.31-.7-.7.31-.7.7-.7.7.31.7.7Z"/>
          <path class="cls-26" d="M224.1,414.31c0,.39-.31.7-.7.7s-.7-.31-.7-.7.31-.7.7-.7.7.31.7.7Z"/>
          <path class="cls-26" d="M226.99,414.32c0,.39-.31.7-.7.7s-.7-.31-.7-.7.31-.7.7-.7.7.31.7.7Z"/>
          <path class="cls-26" d="M221.22,418.29c0,.39-.31.7-.7.7s-.7-.31-.7-.7.31-.7.7-.7.7.31.7.7Z"/>
          <path class="cls-26" d="M226.99,418.3c0,.39-.31.7-.7.7s-.7-.31-.7-.7.31-.7.7-.7.7.31.7.7Z"/>
          <path class="cls-26" d="M221.22,422.28c0,.39-.31.7-.7.7s-.7-.31-.7-.7.31-.7.7-.7.7.31.7.7Z"/>
          <path class="cls-26" d="M224.1,422.28c0,.39-.31.7-.7.7s-.7-.31-.7-.7.31-.7.7-.7.7.31.7.7Z"/>
          <path class="cls-26" d="M226.99,426.26c0,.39-.31.7-.7.7s-.7-.31-.7-.7.31-.7.7-.7.7.31.7.7Z"/>
          <path class="cls-26" d="M221.22,430.24c0,.39-.31.7-.7.7s-.7-.31-.7-.7.31-.7.7-.7.7.31.7.7Z"/>
          <path class="cls-26" d="M224.1,430.24c0,.39-.31.7-.7.7s-.7-.31-.7-.7.31-.7.7-.7.7.31.7.7Z"/>
          <path class="cls-26" d="M221.22,434.22c0,.39-.31.7-.7.7s-.7-.31-.7-.7.31-.7.7-.7.7.31.7.7Z"/>
          <path class="cls-26" d="M226.99,434.23c0,.39-.31.7-.7.7s-.7-.31-.7-.7.31-.7.7-.7.7.31.7.7Z"/>
          <path class="cls-26" d="M221.22,438.21c0,.39-.31.7-.7.7s-.7-.31-.7-.7.31-.7.7-.7.7.31.7.7Z"/>
          <path class="cls-26" d="M226.99,438.21c0,.39-.31.7-.7.7s-.7-.31-.7-.7.31-.7.7-.7.7.31.7.7Z"/>
          <circle class="cls-26" cx="223.4" cy="442.19" r=".7"/>
          <path class="cls-26" d="M226.99,442.19c0,.39-.31.7-.7.7s-.7-.31-.7-.7.31-.7.7-.7.7.31.7.7Z"/>
        </g>
        <g>
          <path class="cls-5" d="M303.05,483.52s-13.14,1.12-17.03-6.92c-3.89-8.05-.16-24.74,7.91-33.35s16.15-2.4,18.27-.1c2.12,2.3,13.19,14.58,8.98,32.24-2.52,6.67-8.55,8.72-18.13,8.13Z"/>
          <line class="cls-5" x1="303.05" y1="463.26" x2="303.05" y2="495.56"/>
          <line class="cls-5" x1="311.25" y1="467.36" x2="304.7" y2="469.66"/>
          <line class="cls-5" x1="303.19" y1="477.56" x2="310.76" y2="474.88"/>
          <line class="cls-5" x1="296.39" y1="470.84" x2="303.05" y2="473.59"/>
        </g>
        <g>
          <path class="cls-5" d="M344,486.39s2.04.04,3.03-1.31c1.2,0,4.08.85,4.56-2.49.77-.65,5.36-4.61.54-7.3,1.27-3.74,2.37-7.08-4.13-7.66-1.11-2.04-5.02-5.61-8.36.06-1.5-.09-6.56.11-5.02,7.22-1.61.88-3.46,5.61,1.03,7.5-.96,2.58,3.27,3.78,4.34,2.45,1.2,1.15.96,1.08,1.79,1.49"/>
          <line class="cls-5" x1="343.04" y1="480.62" x2="343.04" y2="494.88"/>
        </g>
        <g>
          <path class="cls-5" d="M135.08,464.36s8.25,13.46,8.79,14.68c1.02,2.31.7,3.51-2.91,2.42,1.98,3.31,3.17,5.15,3.59,5.92.42.77-1.61.43-3.57.49s-4.88,0-4.88,0"/>
          <g>
            <path class="cls-5" d="M135.08,464.36s-8.25,13.46-8.79,14.68c-1.02,2.31-.7,3.51,2.91,2.42-1.98,3.31-3.17,5.15-3.59,5.92s1.61.43,3.57.49c1.96.06,4.88,0,4.88,0"/>
            <line class="cls-5" x1="135.07" y1="476.47" x2="135.07" y2="495.11"/>
            <path class="cls-5" d="M137.38,477.85s-1.75,2.93-4.6.07"/>
            <path class="cls-5" d="M137.38,481.91s-1.75,2.93-4.6.07"/>
          </g>
        </g>
        <g>
          <g id="horizonline">
            <path class="cls-26" d="M369.43,496.97h-965.79v-1.71H369.43c.47,0,.85.38.85.85h0c0,.47-.38.85-.85.85Z"/>
          </g>
          <g class="cls-28">
            <line class="cls-4" x1="107.6" y1="504.36" x2="103.57" y2="504.36"/>
          </g>
          <g id="cloud">
            <line class="cls-5" x1="234.78" y1="371.91" x2="238.24" y2="371.91"/>
            <line class="cls-5" x1="282.7" y1="371.91" x2="283.97" y2="371.91"/>
            <polyline class="cls-5" points="242.1 371.91 251.39 371.91 251.85 371.91 262.01 371.91 265.36 371.91 270.5 371.91 271.71 371.91 279.78 371.91"/>
            <path class="cls-5" d="M242.1,371.91c0-2.56,2.08-4.64,4.64-4.64,1.39,0,2.64.61,3.48,1.58"/>
            <path class="cls-5" d="M259.98,361.09c.15-1.98,1.81-3.55,3.84-3.55,2.13,0,3.85,1.72,3.85,3.85,0,.11,0,.21-.01.32"/>
            <path class="cls-5" d="M250.23,368.84c-.12-.51-.18-1.04-.18-1.58,0-3.8,3.08-6.89,6.88-6.89,1.1,0,2.13.25,3.05.71"/>
            <path class="cls-5" d="M267.65,361.71c.29-.05.59-.07.89-.07,3.11,0,5.63,2.52,5.63,5.63,0,.04,0,.07,0,.1"/>
            <path class="cls-5" d="M274.16,367.37c.32-.07.64-.1.98-.1,2.56,0,4.64,2.08,4.64,4.64h-8.07"/>
          </g>
        </g>
        <g>
          <path class="cls-17" d="M159.57,454.31l-.11-13.33,1.76-4.92v-67.75h2.07v-16.86l2.48-.5v-9.04l.9-.18v-7.61l3.5-2.63,10.79-7.08,10.79,7.08,3.5,2.63v7.61l.9.18v9.04l2.48.5v16.86h2.07v67.75l1.76,4.92-.15,4.53M191.74,331.49"/>
          <rect class="cls-26" x="167.81" y="343.38" width="1.93" height="3.21"/>
          <rect class="cls-26" x="172.68" y="343.38" width="1.93" height="3.21"/>
          <rect class="cls-26" x="177.55" y="343.38" width="1.93" height="3.21"/>
          <rect class="cls-26" x="187.29" y="343.38" width="1.93" height="3.21"/>
          <rect class="cls-26" x="192.16" y="343.38" width="1.93" height="3.21"/>
          <rect class="cls-26" x="182.42" y="343.38" width="1.93" height="3.21"/>
          <rect class="cls-26" x="167.81" y="347.89" width="1.93" height="6.14"/>
          <rect class="cls-26" x="172.68" y="347.89" width="1.93" height="6.14"/>
          <rect class="cls-26" x="177.55" y="347.89" width="1.93" height="6.14"/>
          <rect class="cls-26" x="187.29" y="347.89" width="1.93" height="6.14"/>
          <rect class="cls-26" x="192.16" y="347.89" width="1.93" height="6.14"/>
          <rect class="cls-26" x="182.42" y="347.89" width="1.93" height="6.14"/>
          <rect class="cls-26" x="168.12" y="339.56" width="25.65" height="1.35"/>
          <rect class="cls-26" x="174.83" y="356.86" width="2.04" height="2.47"/>
          <rect class="cls-26" x="183.24" y="356.86" width="2.04" height="2.47"/>
          <rect class="cls-26" x="167.87" y="356.86" width="2.04" height="2.47"/>
          <rect class="cls-26" x="174.83" y="363.24" width="2.04" height="2.47"/>
          <rect class="cls-26" x="183.24" y="363.24" width="2.04" height="2.47"/>
          <rect class="cls-26" x="167.87" y="363.24" width="2.04" height="2.47"/>
          <rect class="cls-26" x="174.83" y="369.61" width="2.04" height="2.47"/>
          <rect class="cls-26" x="183.24" y="369.61" width="2.04" height="2.47"/>
          <rect class="cls-26" x="167.87" y="369.61" width="2.04" height="2.47"/>
          <rect class="cls-26" x="174.83" y="375.99" width="2.04" height="2.47"/>
          <rect class="cls-26" x="183.24" y="375.99" width="2.04" height="2.47"/>
          <rect class="cls-26" x="167.87" y="375.99" width="2.04" height="2.47"/>
          <rect class="cls-26" x="174.83" y="382.36" width="2.04" height="2.47"/>
          <rect class="cls-26" x="183.24" y="382.36" width="2.04" height="2.47"/>
          <rect class="cls-26" x="167.87" y="382.36" width="2.04" height="2.47"/>
          <rect class="cls-26" x="174.83" y="388.73" width="2.04" height="2.47"/>
          <rect class="cls-26" x="183.24" y="388.73" width="2.04" height="2.47"/>
          <rect class="cls-26" x="167.87" y="388.73" width="2.04" height="2.47"/>
          <rect class="cls-26" x="174.83" y="395.11" width="2.04" height="2.47"/>
          <rect class="cls-26" x="183.24" y="395.11" width="2.04" height="2.47"/>
          <rect class="cls-26" x="167.87" y="395.11" width="2.04" height="2.47"/>
          <rect class="cls-26" x="174.83" y="401.48" width="2.04" height="2.47"/>
          <rect class="cls-26" x="183.24" y="401.48" width="2.04" height="2.47"/>
          <rect class="cls-26" x="167.87" y="401.48" width="2.04" height="2.47"/>
          <rect class="cls-26" x="174.83" y="407.86" width="2.04" height="2.47"/>
          <rect class="cls-26" x="183.24" y="407.86" width="2.04" height="2.47"/>
          <rect class="cls-26" x="167.87" y="407.86" width="2.04" height="2.47"/>
          <rect class="cls-26" x="174.83" y="414.23" width="2.04" height="2.47"/>
          <rect class="cls-26" x="183.24" y="414.23" width="2.04" height="2.47"/>
          <rect class="cls-26" x="167.87" y="414.23" width="2.04" height="2.47"/>
          <rect class="cls-26" x="174.83" y="420.61" width="2.04" height="2.47"/>
          <rect class="cls-26" x="183.24" y="420.61" width="2.04" height="2.47"/>
          <rect class="cls-26" x="167.87" y="420.61" width="2.04" height="2.47"/>
          <rect class="cls-26" x="174.83" y="426.98" width="2.04" height="2.47"/>
          <rect class="cls-26" x="183.24" y="426.98" width="2.04" height="2.47"/>
          <rect class="cls-26" x="167.87" y="426.98" width="2.04" height="2.47"/>
          <rect class="cls-26" x="174.83" y="433.36" width="2.04" height="2.47"/>
          <rect class="cls-26" x="183.24" y="433.36" width="2.04" height="2.47"/>
          <rect class="cls-26" x="167.87" y="433.36" width="2.04" height="2.47"/>
          <rect class="cls-26" x="174.83" y="439.73" width="2.04" height="2.47"/>
          <rect class="cls-26" x="183.24" y="439.73" width="2.04" height="2.47"/>
          <rect class="cls-26" x="167.87" y="439.73" width="2.04" height="2.47"/>
          <rect class="cls-26" x="191.01" y="356.78" width="2.04" height="2.47"/>
          <rect class="cls-26" x="191.01" y="363.15" width="2.04" height="2.47"/>
          <rect class="cls-26" x="191.01" y="369.53" width="2.04" height="2.47"/>
          <rect class="cls-26" x="191.01" y="375.9" width="2.04" height="2.47"/>
          <rect class="cls-26" x="191.01" y="382.28" width="2.04" height="2.47"/>
          <rect class="cls-26" x="191.01" y="388.65" width="2.04" height="2.47"/>
          <rect class="cls-26" x="191.01" y="395.02" width="2.04" height="2.47"/>
          <rect class="cls-26" x="191.01" y="401.4" width="2.04" height="2.47"/>
          <rect class="cls-26" x="191.01" y="407.77" width="2.04" height="2.47"/>
          <rect class="cls-26" x="191.01" y="414.15" width="2.04" height="2.47"/>
          <rect class="cls-26" x="191.01" y="420.52" width="2.04" height="2.47"/>
          <rect class="cls-26" x="191.01" y="426.9" width="2.04" height="2.47"/>
          <rect class="cls-26" x="191.01" y="433.27" width="2.04" height="2.47"/>
          <rect class="cls-26" x="191.01" y="439.65" width="2.04" height="2.47"/>
        </g>
        <g>
          <path class="cls-17" d="M139.08,467.06l.36-124.27-3.63-39.7-7.09-45.34-1.63-.25.43,38.09h-29.41l.43-38.09-1.63.25-7.09,45.34-3.63,39.7.19,71.19"/>
          <rect class="cls-26" x="94.63" y="304.75" width="1.53" height="175.82"/>
          <rect class="cls-26" x="129.16" y="305.41" width="1.53" height="162.75"/>
          <rect class="cls-26" x="97.7" y="298.47" width="1.11" height="195.62"/>
          <rect class="cls-26" x="126.85" y="298.47" width="1.11" height="172.89"/>
          <rect class="cls-26" x="101.73" y="397.21" width="4.45" height="1.81"/>
          <rect class="cls-26" x="101.73" y="402.08" width="4.45" height="1.81"/>
          <rect class="cls-26" x="101.73" y="406.95" width="4.45" height="1.81"/>
          <rect class="cls-26" x="101.73" y="411.82" width="4.45" height="1.81"/>
          <rect class="cls-26" x="101.73" y="416.69" width="4.45" height="1.81"/>
          <rect class="cls-26" x="101.73" y="421.56" width="4.45" height="1.81"/>
          <rect class="cls-26" x="101.73" y="426.44" width="4.45" height="1.81"/>
          <rect class="cls-26" x="101.73" y="431.31" width="4.45" height="1.81"/>
          <rect class="cls-26" x="101.73" y="436.18" width="4.45" height="1.81"/>
          <rect class="cls-26" x="101.73" y="441.05" width="4.45" height="1.81"/>
          <rect class="cls-26" x="101.73" y="445.92" width="4.45" height="1.81"/>
          <rect class="cls-26" x="101.73" y="450.79" width="4.45" height="1.81"/>
          <rect class="cls-26" x="101.73" y="455.66" width="4.45" height="1.81"/>
          <rect class="cls-26" x="101.73" y="460.53" width="4.45" height="1.81"/>
          <rect class="cls-26" x="101.73" y="465.4" width="4.45" height="1.81"/>
          <rect class="cls-26" x="101.73" y="470.27" width="4.45" height="1.81"/>
          <rect class="cls-26" x="101.73" y="480.01" width="4.45" height="1.81"/>
          <rect class="cls-26" x="101.73" y="484.88" width="4.45" height="1.81"/>
          <rect class="cls-26" x="101.73" y="489.75" width="4.45" height="1.81"/>
          <rect class="cls-26" x="101.73" y="475.14" width="4.45" height="1.81"/>
          <rect class="cls-26" x="110.79" y="397.21" width="4.45" height="1.81"/>
          <rect class="cls-26" x="110.79" y="402.08" width="4.45" height="1.81"/>
          <rect class="cls-26" x="110.79" y="406.95" width="4.45" height="1.81"/>
          <rect class="cls-26" x="110.79" y="411.82" width="4.45" height="1.81"/>
          <rect class="cls-26" x="110.79" y="416.69" width="4.45" height="1.81"/>
          <rect class="cls-26" x="110.79" y="421.56" width="4.45" height="1.81"/>
          <rect class="cls-26" x="110.79" y="426.44" width="4.45" height="1.81"/>
          <rect class="cls-26" x="110.79" y="431.31" width="4.45" height="1.81"/>
          <rect class="cls-26" x="110.79" y="436.18" width="4.45" height="1.81"/>
          <rect class="cls-26" x="110.79" y="441.05" width="4.45" height="1.81"/>
          <rect class="cls-26" x="110.79" y="445.92" width="4.45" height="1.81"/>
          <rect class="cls-26" x="110.79" y="450.79" width="4.45" height="1.81"/>
          <rect class="cls-26" x="110.79" y="455.66" width="4.45" height="1.81"/>
          <rect class="cls-26" x="110.79" y="460.53" width="4.45" height="1.81"/>
          <rect class="cls-26" x="110.79" y="465.4" width="4.45" height="1.81"/>
          <rect class="cls-26" x="110.79" y="470.27" width="4.45" height="1.81"/>
          <rect class="cls-26" x="110.79" y="480.01" width="4.45" height="1.81"/>
          <rect class="cls-26" x="110.79" y="484.88" width="4.45" height="1.81"/>
          <rect class="cls-26" x="110.79" y="489.75" width="4.45" height="1.81"/>
          <rect class="cls-26" x="110.79" y="475.14" width="4.45" height="1.81"/>
          <rect class="cls-26" x="119.85" y="397.21" width="4.45" height="1.81"/>
          <rect class="cls-26" x="119.85" y="402.08" width="4.45" height="1.81"/>
          <rect class="cls-26" x="119.85" y="406.95" width="4.45" height="1.81"/>
          <rect class="cls-26" x="119.85" y="411.82" width="4.45" height="1.81"/>
          <rect class="cls-26" x="119.85" y="416.69" width="4.45" height="1.81"/>
          <rect class="cls-26" x="119.85" y="421.56" width="4.45" height="1.81"/>
          <rect class="cls-26" x="119.85" y="426.44" width="4.45" height="1.81"/>
          <rect class="cls-26" x="119.85" y="431.31" width="4.45" height="1.81"/>
          <rect class="cls-26" x="119.85" y="436.18" width="4.45" height="1.81"/>
          <rect class="cls-26" x="119.85" y="441.05" width="4.45" height="1.81"/>
          <rect class="cls-26" x="119.85" y="445.92" width="4.45" height="1.81"/>
          <rect class="cls-26" x="119.85" y="450.79" width="4.45" height="1.81"/>
          <rect class="cls-26" x="119.85" y="455.66" width="4.45" height="1.81"/>
          <rect class="cls-26" x="119.85" y="460.53" width="4.45" height="1.81"/>
          <rect class="cls-26" x="119.85" y="465.4" width="4.45" height="1.81"/>
          <rect class="cls-26" x="119.85" y="470.27" width="4.45" height="1.81"/>
          <rect class="cls-26" x="119.85" y="480.01" width="4.45" height="1.81"/>
          <rect class="cls-26" x="119.85" y="484.88" width="4.45" height="1.81"/>
          <rect class="cls-26" x="119.85" y="489.75" width="4.45" height="1.81"/>
          <rect class="cls-26" x="119.85" y="475.14" width="4.45" height="1.81"/>
          <rect class="cls-26" x="101.73" y="299.83" width="4.45" height="1.81"/>
          <rect class="cls-26" x="101.73" y="304.7" width="4.45" height="1.81"/>
          <rect class="cls-26" x="101.73" y="309.57" width="4.45" height="1.81"/>
          <rect class="cls-26" x="101.73" y="314.44" width="4.45" height="1.81"/>
          <rect class="cls-26" x="101.73" y="319.31" width="4.45" height="1.81"/>
          <rect class="cls-26" x="101.73" y="324.18" width="4.45" height="1.81"/>
          <rect class="cls-26" x="101.73" y="329.05" width="4.45" height="1.81"/>
          <rect class="cls-26" x="101.73" y="333.93" width="4.45" height="1.81"/>
          <rect class="cls-26" x="101.73" y="338.8" width="4.45" height="1.81"/>
          <rect class="cls-26" x="101.73" y="343.67" width="4.45" height="1.81"/>
          <rect class="cls-26" x="101.73" y="348.54" width="4.45" height="1.81"/>
          <rect class="cls-26" x="101.73" y="353.41" width="4.45" height="1.81"/>
          <rect class="cls-26" x="101.73" y="358.28" width="4.45" height="1.81"/>
          <rect class="cls-26" x="101.73" y="363.15" width="4.45" height="1.81"/>
          <rect class="cls-26" x="101.73" y="368.02" width="4.45" height="1.81"/>
          <rect class="cls-26" x="101.73" y="372.89" width="4.45" height="1.81"/>
          <rect class="cls-26" x="101.73" y="382.63" width="4.45" height="1.81"/>
          <rect class="cls-26" x="101.73" y="387.5" width="4.45" height="1.81"/>
          <rect class="cls-26" x="101.73" y="392.37" width="4.45" height="1.81"/>
          <rect class="cls-26" x="101.73" y="377.76" width="4.45" height="1.81"/>
          <rect class="cls-26" x="110.79" y="299.83" width="4.45" height="1.81"/>
          <rect class="cls-26" x="110.79" y="304.7" width="4.45" height="1.81"/>
          <rect class="cls-26" x="110.79" y="309.57" width="4.45" height="1.81"/>
          <rect class="cls-26" x="110.79" y="314.44" width="4.45" height="1.81"/>
          <rect class="cls-26" x="110.79" y="319.31" width="4.45" height="1.81"/>
          <rect class="cls-26" x="110.79" y="324.18" width="4.45" height="1.81"/>
          <rect class="cls-26" x="110.79" y="329.05" width="4.45" height="1.81"/>
          <rect class="cls-26" x="110.79" y="333.93" width="4.45" height="1.81"/>
          <rect class="cls-26" x="110.79" y="338.8" width="4.45" height="1.81"/>
          <rect class="cls-26" x="110.79" y="343.67" width="4.45" height="1.81"/>
          <rect class="cls-26" x="110.79" y="348.54" width="4.45" height="1.81"/>
          <rect class="cls-26" x="110.79" y="353.41" width="4.45" height="1.81"/>
          <rect class="cls-26" x="110.79" y="358.28" width="4.45" height="1.81"/>
          <rect class="cls-26" x="110.79" y="363.15" width="4.45" height="1.81"/>
          <rect class="cls-26" x="110.79" y="368.02" width="4.45" height="1.81"/>
          <rect class="cls-26" x="110.79" y="372.89" width="4.45" height="1.81"/>
          <rect class="cls-26" x="110.79" y="382.63" width="4.45" height="1.81"/>
          <rect class="cls-26" x="110.79" y="387.5" width="4.45" height="1.81"/>
          <rect class="cls-26" x="110.79" y="392.37" width="4.45" height="1.81"/>
          <rect class="cls-26" x="110.79" y="377.76" width="4.45" height="1.81"/>
          <rect class="cls-26" x="119.85" y="299.83" width="4.45" height="1.81"/>
          <rect class="cls-26" x="119.85" y="304.7" width="4.45" height="1.81"/>
          <rect class="cls-26" x="119.85" y="309.57" width="4.45" height="1.81"/>
          <rect class="cls-26" x="119.85" y="314.44" width="4.45" height="1.81"/>
          <rect class="cls-26" x="119.85" y="319.31" width="4.45" height="1.81"/>
          <rect class="cls-26" x="119.85" y="324.18" width="4.45" height="1.81"/>
          <rect class="cls-26" x="119.85" y="329.05" width="4.45" height="1.81"/>
          <rect class="cls-26" x="119.85" y="333.93" width="4.45" height="1.81"/>
          <rect class="cls-26" x="119.85" y="338.8" width="4.45" height="1.81"/>
          <rect class="cls-26" x="119.85" y="343.67" width="4.45" height="1.81"/>
          <rect class="cls-26" x="119.85" y="348.54" width="4.45" height="1.81"/>
          <rect class="cls-26" x="119.85" y="353.41" width="4.45" height="1.81"/>
          <rect class="cls-26" x="119.85" y="358.28" width="4.45" height="1.81"/>
          <rect class="cls-26" x="119.85" y="363.15" width="4.45" height="1.81"/>
          <rect class="cls-26" x="119.85" y="368.02" width="4.45" height="1.81"/>
          <rect class="cls-26" x="119.85" y="372.89" width="4.45" height="1.81"/>
          <rect class="cls-26" x="119.85" y="382.63" width="4.45" height="1.81"/>
          <rect class="cls-26" x="119.85" y="387.5" width="4.45" height="1.81"/>
          <rect class="cls-26" x="119.85" y="392.37" width="4.45" height="1.81"/>
          <rect class="cls-26" x="119.85" y="377.76" width="4.45" height="1.81"/>
        </g>
        <g>
          <path class="cls-16" d="M60.53,415.66l.74-143.17h-4.94v-9.14h-4.61v-12.33h-6.12v-8.25h-4.81v-13.31h-1.65l-.02-3.53h-3.41v-8.18h-.85v8.18h-2.86l-.02,3.53h-1.65v13.31h-4.81v8.25h-6.12v12.33h-4.61v9.14h-4.94l-.08,102.58M61.27,491.85"/>
          <rect class="cls-26" x="17.74" y="277.45" width="2.51" height="3.75"/>
          <rect class="cls-26" x="17.74" y="285.34" width="2.51" height="3.75"/>
          <rect class="cls-26" x="17.74" y="293.23" width="2.51" height="3.75"/>
          <rect class="cls-26" x="17.74" y="301.12" width="2.51" height="3.75"/>
          <rect class="cls-26" x="17.74" y="309.01" width="2.51" height="3.75"/>
          <rect class="cls-26" x="17.74" y="316.9" width="2.51" height="3.75"/>
          <rect class="cls-26" x="17.74" y="324.79" width="2.51" height="3.75"/>
          <rect class="cls-26" x="17.74" y="332.67" width="2.51" height="3.75"/>
          <rect class="cls-26" x="17.74" y="340.56" width="2.51" height="3.75"/>
          <rect class="cls-26" x="17.74" y="348.45" width="2.51" height="3.75"/>
          <rect class="cls-26" x="17.74" y="356.34" width="2.51" height="3.75"/>
          <rect class="cls-26" x="17.74" y="364.23" width="2.51" height="3.75"/>
          <rect class="cls-26" x="50.87" y="277.45" width="2.51" height="3.75"/>
          <rect class="cls-26" x="50.87" y="285.34" width="2.51" height="3.75"/>
          <rect class="cls-26" x="50.87" y="293.23" width="2.51" height="3.75"/>
          <rect class="cls-26" x="50.87" y="301.12" width="2.51" height="3.75"/>
          <rect class="cls-26" x="50.87" y="309.01" width="2.51" height="3.75"/>
          <rect class="cls-26" x="50.87" y="316.9" width="2.51" height="3.75"/>
          <rect class="cls-26" x="50.87" y="324.79" width="2.51" height="3.75"/>
          <rect class="cls-26" x="50.87" y="332.67" width="2.51" height="3.75"/>
          <rect class="cls-26" x="50.87" y="340.56" width="2.51" height="3.75"/>
          <rect class="cls-26" x="50.87" y="348.45" width="2.51" height="3.75"/>
          <rect class="cls-26" x="50.87" y="356.34" width="2.51" height="3.75"/>
          <rect class="cls-26" x="50.87" y="364.23" width="2.51" height="3.75"/>
          <rect class="cls-26" x="24.08" y="285.35" width="6.6" height="3.47"/>
          <rect class="cls-26" x="40.45" y="285.35" width="6.6" height="3.47"/>
          <rect class="cls-26" x="24.08" y="293.66" width="6.6" height="3.47"/>
          <rect class="cls-26" x="40.45" y="293.66" width="6.6" height="3.47"/>
          <rect class="cls-26" x="32.26" y="293.66" width="6.6" height="3.47"/>
          <rect class="cls-26" x="24.08" y="301.96" width="6.6" height="3.47"/>
          <rect class="cls-26" x="40.45" y="301.96" width="6.6" height="3.47"/>
          <rect class="cls-26" x="32.26" y="301.96" width="6.6" height="3.47"/>
          <rect class="cls-26" x="24.08" y="310.27" width="6.6" height="3.47"/>
          <rect class="cls-26" x="40.45" y="310.27" width="6.6" height="3.47"/>
          <rect class="cls-26" x="32.26" y="310.27" width="6.6" height="3.47"/>
          <rect class="cls-26" x="24.08" y="318.57" width="6.6" height="3.47"/>
          <rect class="cls-26" x="40.45" y="318.57" width="6.6" height="3.47"/>
          <rect class="cls-26" x="32.26" y="318.57" width="6.6" height="3.47"/>
          <rect class="cls-26" x="24.08" y="326.87" width="6.6" height="3.47"/>
          <rect class="cls-26" x="40.45" y="326.87" width="6.6" height="3.47"/>
          <rect class="cls-26" x="32.26" y="326.87" width="6.6" height="3.47"/>
          <rect class="cls-26" x="24.08" y="335.18" width="6.6" height="3.47"/>
          <rect class="cls-26" x="40.45" y="335.18" width="6.6" height="3.47"/>
          <rect class="cls-26" x="32.26" y="335.18" width="6.6" height="3.47"/>
          <rect class="cls-26" x="24.08" y="343.48" width="6.6" height="3.47"/>
          <rect class="cls-26" x="40.45" y="343.48" width="6.6" height="3.47"/>
          <rect class="cls-26" x="32.26" y="343.48" width="6.6" height="3.47"/>
          <rect class="cls-26" x="24.08" y="351.79" width="6.6" height="3.47"/>
          <rect class="cls-26" x="40.45" y="351.79" width="6.6" height="3.47"/>
          <rect class="cls-26" x="32.26" y="351.79" width="6.6" height="3.47"/>
          <path class="cls-26" d="M29.86,248.62v5.68h-3.65v1.64h5.1v-7.32h-1.45ZM39.81,248.62v7.32h5.1v-1.64h-3.65v-5.68h-1.45ZM31.03,260.12v8.97h1.45v-7.33h6.17v7.33h1.45v-8.97h-9.06ZM24.14,267.02v5.67h-5.87v1.64h7.32v-7.31h-1.45ZM45.53,267.02v7.31h7.32v-1.64h-5.87v-5.67h-1.45ZM45.53,267.02"/>
        </g>
        <g>
          <path class="cls-17" d="M53.8,398.43,53.79,415.93v-34.57s-3.71,0-3.71,0v-7.73h-1.23v-.85l-1.6-1.15h-1.5l-1.36.98v.94h-.95v-2.15l.5-.63v-8.87l1.03-.74-.86-.36h-1.11v-1.73h-2.26v1.45h-10.51v-1.45h-2.26v1.73h-1.11l-.86.36,1.03.74v8.87l.5.63v2.15h-.94v-.94l-1.36-.98h-1.5l-1.6,1.15v.85h-1.23v5.06H-3.91v-5.06h-1.23v-.85l-1.6-1.15h-1.5l-1.36.98v.94h-.94v-2.15l.5-.63v-8.87l1.03-.74-.86-.36h-1.11v-1.73h-2.26v1.45h-10.51v-1.45h-2.26v1.73h-1.11l-.86.36,1.03.74v8.87l.5.63v2.15h-.94v-.94l-1.36-.98h-1.5l-1.6,1.15v.85h-1.23v7.73h-3.72l.08,81.02M-26.01,359.08"/>
          <rect class="cls-26" x="17.76" y="382.9" width="1.77" height="110.27"/>
          <rect class="cls-26" x="27.07" y="385.59" width="3.14" height="6.78"/>
          <rect class="cls-26" x="3.19" y="386.03" width="3.14" height="2.4"/>
          <rect class="cls-26" x="9.08" y="386.03" width="3.14" height="2.4"/>
          <rect class="cls-26" x="3.19" y="391.92" width="3.14" height="2.4"/>
          <rect class="cls-26" x="9.08" y="391.92" width="3.14" height="2.4"/>
          <rect class="cls-26" x="3.19" y="397.81" width="3.14" height="2.4"/>
          <rect class="cls-26" x="9.08" y="397.81" width="3.14" height="2.4"/>
          <rect class="cls-26" x="3.19" y="403.7" width="3.14" height="2.4"/>
          <rect class="cls-26" x="9.08" y="403.7" width="3.14" height="2.4"/>
          <rect class="cls-26" x="3.19" y="409.59" width="3.14" height="2.4"/>
          <rect class="cls-26" x="9.08" y="409.59" width="3.14" height="2.4"/>
          <rect class="cls-26" x="3.19" y="415.48" width="3.14" height="2.4"/>
          <rect class="cls-26" x="9.08" y="415.48" width="3.14" height="2.4"/>
          <rect class="cls-26" x="3.19" y="421.37" width="3.14" height="2.4"/>
          <rect class="cls-26" x="9.08" y="421.37" width="3.14" height="2.4"/>
          <rect class="cls-26" x="3.19" y="427.26" width="3.14" height="2.4"/>
          <rect class="cls-26" x="9.08" y="427.26" width="3.14" height="2.4"/>
          <rect class="cls-26" x="3.19" y="433.15" width="3.14" height="2.4"/>
          <rect class="cls-26" x="9.08" y="433.15" width="3.14" height="2.4"/>
          <rect class="cls-26" x="3.19" y="439.05" width="3.14" height="2.4"/>
          <rect class="cls-26" x="9.08" y="439.05" width="3.14" height="2.4"/>
          <rect class="cls-26" x="3.19" y="444.94" width="3.14" height="2.4"/>
          <rect class="cls-26" x="9.08" y="444.94" width="3.14" height="2.4"/>
          <rect class="cls-26" x="3.19" y="450.83" width="3.14" height="2.4"/>
          <rect class="cls-26" x="9.08" y="450.83" width="3.14" height="2.4"/>
          <rect class="cls-26" x="3.19" y="456.72" width="3.14" height="2.4"/>
          <rect class="cls-26" x="9.08" y="456.72" width="3.14" height="2.4"/>
          <rect class="cls-26" x="3.19" y="462.61" width="3.14" height="2.4"/>
          <rect class="cls-26" x="9.08" y="462.61" width="3.14" height="2.4"/>
          <rect class="cls-26" x="3.19" y="468.5" width="3.14" height="2.4"/>
          <rect class="cls-26" x="9.08" y="468.5" width="3.14" height="2.4"/>
          <rect class="cls-26" x="3.19" y="474.39" width="3.14" height="2.4"/>
          <rect class="cls-26" x="9.08" y="474.39" width="3.14" height="2.4"/>
          <rect class="cls-26" x="3.19" y="480.28" width="3.14" height="2.4"/>
          <rect class="cls-26" x="9.08" y="480.28" width="3.14" height="2.4"/>
          <rect class="cls-26" x="3.19" y="486.17" width="3.14" height="2.4"/>
          <rect class="cls-26" x="9.08" y="486.17" width="3.14" height="2.4"/>
          <rect class="cls-26" x="22.47" y="374.99" width="25.98" height=".7"/>
          <rect class="cls-26" x="28.29" y="364.11" width="1.96" height="4.38"/>
          <rect class="cls-26" x="40.18" y="364.11" width="1.96" height="4.38"/>
          <rect class="cls-26" x="33.15" y="364.11" width="4.13" height="4.38"/>
          <rect class="cls-26" x="33.71" y="385.69" width="3.14" height="6.78"/>
          <rect class="cls-26" x="40.39" y="385.69" width="3.14" height="6.78"/>
          <rect class="cls-26" x="27.03" y="395.31" width="3.14" height="6.78"/>
          <rect class="cls-26" x="33.71" y="395.31" width="3.14" height="6.78"/>
          <rect class="cls-26" x="40.39" y="395.31" width="3.14" height="6.78"/>
          <rect class="cls-26" x="27.05" y="404.69" width="3.14" height="6.78"/>
          <rect class="cls-26" x="27.05" y="414.3" width="3.14" height="6.78"/>
          <rect class="cls-26" x="27.05" y="423.92" width="3.14" height="6.78"/>
          <rect class="cls-26" x="27.05" y="433.53" width="3.14" height="6.78"/>
          <rect class="cls-26" x="27.05" y="443.15" width="3.14" height="6.78"/>
          <rect class="cls-26" x="27.05" y="452.76" width="3.14" height="6.78"/>
          <rect class="cls-26" x="27.05" y="462.38" width="3.14" height="6.78"/>
          <rect class="cls-26" x="27.05" y="472" width="3.14" height="6.78"/>
          <rect class="cls-26" x="27.05" y="481.61" width="3.14" height="6.78"/>
          <rect class="cls-26" x="33.75" y="404.63" width="3.14" height="6.78"/>
          <rect class="cls-26" x="40.43" y="404.63" width="3.14" height="6.78"/>
        </g>
        <g>
          <polygon class="cls-18" points="145.41 462.77 151.4 487.69 172.92 469.16 145.41 462.77"/>
          <polygon class="cls-18" points="195.64 491.58 225.19 470.89 182.58 467.5 171.54 466.62 195.64 491.58"/>
          <polygon class="cls-18" points="223.13 467.45 254.32 489.17 270.75 463.54 223.13 467.45"/>
          <polygon class="cls-18" points="270.75 463.54 280.76 472.89 278.05 462.37 270.75 463.54"/>
          <polygon class="cls-18" points="152.39 487.67 190.35 486.66 173.46 468.65 152.39 487.67"/>
          <polygon class="cls-18" points="200.78 488.27 244.95 482.76 226.55 470.02 200.78 488.27"/>
          <polygon class="cls-18" points="255.49 487.4 283.45 475.91 270.75 463.54 255.49 487.4"/>
          <polyline class="cls-18" points="187.5 456.24 211.02 459.61 223.95 467.93"/>
          <polyline class="cls-18" points="144.83 462.37 155.78 456.18 167.82 455 171.84 451.18 182.78 451.18"/>
          <polyline class="cls-18" points="236.47 454.86 270.86 462.51 278.05 462.37 276.59 456.18 264.26 452.8 249.95 453"/>
          <polyline class="cls-18" points="244.66 454.45 251.05 453.21 238.95 446.61 216.11 447.16 188.05 447.98 179.5 452.94 179.5 456.18 165.56 460.91 172.3 467.24"/>
          <polyline class="cls-18" points="179.5 452.94 187.5 456.24 199.79 451.18 205.66 455.96 215.29 455.96 219.14 451.01 230.59 455.67 236.25 455.08 238.44 450.51 245.21 454.52"/>
          <line class="cls-18" x1="174.83" y1="469.89" x2="221.75" y2="473.56"/>
          <line class="cls-18" x1="176.77" y1="472.89" x2="217.76" y2="476.35"/>
          <line class="cls-18" x1="181.53" y1="476.9" x2="213.36" y2="479.28"/>
          <line class="cls-18" x1="185" y1="480.48" x2="208.82" y2="482.08"/>
          <line class="cls-18" x1="188.01" y1="483.88" x2="205.66" y2="485.01"/>
          <line class="cls-18" x1="217.48" y1="476.26" x2="233.02" y2="474.24"/>
          <line class="cls-18" x1="212.2" y1="480.07" x2="237.02" y2="477.42"/>
          <line class="cls-18" x1="206.01" y1="484.47" x2="241.01" y2="480.22"/>
          <line class="cls-18" x1="166.45" y1="474.9" x2="178" y2="473.23"/>
          <line class="cls-18" x1="163.12" y1="478.17" x2="180.66" y2="476.26"/>
          <line class="cls-18" x1="159.28" y1="481.49" x2="183.31" y2="479.19"/>
          <line class="cls-18" x1="156.18" y1="484.3" x2="186.48" y2="482.54"/>
          <polyline class="cls-18" points="275.4 468 264.98 472.78 266.94 482.92"/>
          <line class="cls-18" x1="261.86" y1="477.36" x2="278.32" y2="470.8"/>
          <line class="cls-18" x1="258.93" y1="481.95" x2="281.03" y2="473.28"/>
          <polygon class="cls-17" points="151.18 487.53 151.4 495.72 254.39 495.84 254.52 488.92 254.32 489.17 244.95 482.76 199.91 488.59 195.47 491.44 190.35 486.66 151.18 487.53"/>
          <line class="cls-14" x1="157.58" y1="487.78" x2="157.58" y2="495.3"/>
          <line class="cls-11" x1="166.51" y1="486.93" x2="166.51" y2="495.45"/>
          <line class="cls-11" x1="175.89" y1="487.07" x2="175.89" y2="495.58"/>
          <line class="cls-11" x1="180.32" y1="487.25" x2="180.32" y2="495.76"/>
          <line class="cls-19" x1="204.73" y1="488.09" x2="204.7" y2="495.72"/>
          <line class="cls-15" x1="209.22" y1="487.4" x2="209.13" y2="495.4"/>
          <line class="cls-13" x1="218.2" y1="486.5" x2="218.2" y2="495.34"/>
          <line class="cls-9" x1="223.02" y1="485.99" x2="223.02" y2="495.47"/>
          <line class="cls-10" x1="236.51" y1="484.21" x2="236.51" y2="495.57"/>
          <line class="cls-6" x1="241.2" y1="483.34" x2="241.2" y2="495.52"/>
          <line class="cls-12" x1="250.13" y1="486.27" x2="250.13" y2="495.63"/>
          <line class="cls-8" x1="259.51" y1="486.04" x2="259.51" y2="495.52"/>
          <line class="cls-2" x1="273.01" y1="480.26" x2="273.01" y2="495.64"/>
          <line class="cls-7" x1="268.44" y1="482.33" x2="268.44" y2="495.66"/>
          <line class="cls-20" x1="198.79" y1="489.42" x2="198.79" y2="495.56"/>
          <line class="cls-20" x1="194.17" y1="490.49" x2="194.23" y2="495.58"/>
        </g>
        <g>
          <path class="cls-3" d="M88.52,495.9v-6.17l-2.07-1.31-.45-1.84-.97-50.26,1.52-.3v-3.17h-.9l-.07-4.37.83-1.92h-.52l-.38-3.96,1.31-.57.1-2.04,3,.15v-1.66h-4.66v-2.41h-45.86v2.41h-4.66v1.66l3-.15.1,2.04,1.31.57-.38,3.96h-.52l.83,1.92-.07,4.37h-.9v3.17l1.52.3-.97,50.26-.45,1.84-2.07,1.31v6.17h52.38ZM88.52,495.28"/>
          <path class="cls-17" d="M70.19,464.87c0-10.81-15.7-10.39-15.7,0v23.25h15.7v-23.25ZM70.19,464.87"/>
          <rect class="cls-26" x="54.11" y="489.98" width="16.45" height=".64"/>
          <rect class="cls-26" x="52.73" y="491.99" width="19.21" height=".64"/>
          <rect class="cls-26" x="50.21" y="493.99" width="24.24" height=".64"/>
          <rect class="cls-26" x="67.28" y="433.09" width="4.97" height="13.12"/>
          <rect class="cls-26" x="59.85" y="433.09" width="4.97" height="13.12"/>
          <rect class="cls-26" x="52.41" y="433.09" width="4.97" height="13.12"/>
          <rect class="cls-26" x="81.53" y="433.06" width=".88" height="56.74"/>
          <rect class="cls-26" x="76.09" y="433.06" width=".88" height="56.74"/>
          <rect class="cls-26" x="47.7" y="433.06" width=".88" height="56.74"/>
          <rect class="cls-26" x="42.26" y="433.06" width=".88" height="56.74"/>
          <rect class="cls-26" x="42.06" y="417.79" width="39.93" height="1.17"/>
        </g>
        <line class="cls-18" x1="185.57" y1="467.28" x2="182.96" y2="478.18"/>
        <line class="cls-18" x1="194.28" y1="468.46" x2="190.18" y2="485.81"/>
        <line class="cls-18" x1="203.99" y1="468.99" x2="200.09" y2="488.91"/>
        <line class="cls-18" x1="213.8" y1="469.35" x2="211.51" y2="480.52"/>
        <line class="cls-18" x1="269.42" y1="465.8" x2="274.1" y2="479.7"/>
        <g>
          <line class="cls-5" x1="328.15" y1="495.06" x2="328.15" y2="472.14"/>
          <path class="cls-5" d="M324.86,469.41c1.15-1.95,3.97-1.92,5.16,0,1.65,2.67,3.08,5.53,1.43,10.52-2.05,6.22-6.85,2.98-8.11-1.51-.78-2.75.06-6.52,1.53-9.01Z"/>
          <line class="cls-5" x1="327.6" y1="479" x2="325.23" y2="476.13"/>
          <line class="cls-5" x1="328.48" y1="481.76" x2="330.34" y2="478.42"/>
        </g>
        <polyline class="cls-17" points="260.94 430.72 281.03 430.72 281.03 496.11"/>
      </g>
    </g>
  </g>
</svg>