<?xml version="1.0" encoding="UTF-8"?>
<svg id="Artwork" xmlns="http://www.w3.org/2000/svg" viewBox="0 0 959.76 540">
  <defs>
    <style>
      .cls-1 {
        fill: #fff;
      }

      .cls-2 {
        fill: #94bcbe;
      }

      .cls-3 {
        fill: #213d4f;
      }
    </style>
  </defs>
  <rect class="cls-3" x="-3.06" y="-4.01" width="312.97" height="548.01"/>
  <g>
    <g>
      <path class="cls-1" d="M25,510.91c0-1.81,1.43-2.85,3.09-2.85.87,0,1.56.33,2.01.76l-.6.8c-.43-.34-.85-.52-1.34-.52-1.09,0-1.84.72-1.84,1.81s.74,1.8,1.8,1.8c.62,0,1.13-.27,1.55-.6l.53.82c-.63.54-1.42.82-2.19.82-1.7,0-3-1.04-3-2.84Z"/>
      <path class="cls-1" d="M31.19,510.91c0-1.81,1.3-2.85,2.73-2.85s2.73,1.04,2.73,2.85-1.3,2.84-2.73,2.84-2.73-1.04-2.73-2.84ZM35.34,510.91c0-1.09-.53-1.81-1.42-1.81s-1.42.72-1.42,1.81.53,1.8,1.42,1.8,1.42-.71,1.42-1.8Z"/>
      <path class="cls-1" d="M37.93,508.19h1.04l.1.82h.04c.52-.53,1.13-.95,1.96-.95,1.26,0,1.82.8,1.82,2.2v3.36h-1.28v-3.2c0-.87-.28-1.27-1.01-1.27-.54,0-.9.26-1.4.76v3.7h-1.28v-5.43Z"/>
      <path class="cls-1" d="M44.23,508.25l1.53-.06h3.3v1.01h-4.83v-.95ZM45.72,507.89c0-1.28.71-2.21,2.31-2.21.58,0,1.12.12,1.6.3l-.26.95c-.39-.16-.76-.23-1.2-.23-.83,0-1.19.42-1.19,1.18v5.75h-1.27v-5.73Z"/>
      <path class="cls-1" d="M52.21,510.54c0-2.11.92-3.8,2.41-5.04l.71.59c-1.4,1.27-2.02,2.64-2.02,4.44s.62,3.18,2.02,4.44l-.71.59c-1.49-1.23-2.41-2.93-2.41-5.04Z"/>
      <path class="cls-1" d="M56.53,512.88c2.2-1.9,3.53-3.11,3.53-4.2,0-.74-.45-1.21-1.34-1.21-.61,0-1.12.36-1.55.78l-.71-.7c.69-.69,1.39-1.09,2.42-1.09,1.45,0,2.39.86,2.39,2.16s-1.27,2.54-2.9,4c.42-.04.9-.07,1.3-.07h1.98v1.08h-5.12v-.74Z"/>
      <path class="cls-1" d="M63.15,510.07c0-2.38,1.02-3.63,2.62-3.63s2.62,1.25,2.62,3.63-1.02,3.68-2.62,3.68-2.62-1.31-2.62-3.68ZM67.22,510.07c0-1.92-.62-2.62-1.46-2.62s-1.46.7-1.46,2.62.62,2.67,1.46,2.67,1.46-.75,1.46-2.67ZM65,510.02c0-.48.34-.79.76-.79s.76.3.76.79-.34.79-.76.79-.76-.3-.76-.79Z"/>
      <path class="cls-1" d="M69.58,512.88c2.2-1.9,3.53-3.11,3.53-4.2,0-.74-.45-1.21-1.34-1.21-.61,0-1.12.36-1.55.78l-.71-.7c.69-.69,1.39-1.09,2.42-1.09,1.45,0,2.39.86,2.39,2.16s-1.27,2.54-2.9,4c.42-.04.9-.07,1.3-.07h1.98v1.08h-5.12v-.74Z"/>
      <path class="cls-1" d="M75.83,512.78l.6-.82c.47.4,1.02.75,1.82.75.89,0,1.57-.5,1.57-1.35s-.61-1.31-1.5-1.31c-.53,0-.82.12-1.31.39l-.61-.39.21-3.47h4.15v1.09h-3.04l-.15,1.69c.36-.14.67-.22,1.11-.22,1.32,0,2.42.69,2.42,2.2s-1.28,2.42-2.68,2.42c-1.24,0-2.02-.46-2.58-.97Z"/>
      <path class="cls-1" d="M82.39,514.98c1.4-1.27,2.02-2.64,2.02-4.44s-.62-3.18-2.02-4.44l.71-.59c1.49,1.23,2.41,2.93,2.41,5.04s-.92,3.8-2.41,5.04l-.71-.59Z"/>
    </g>
    <g>
      <path class="cls-1" d="M46.59,485.65c4.24,0,7.23,2.89,7.23,6.9s-2.99,6.88-7.23,6.88-7.18-2.89-7.18-6.88,2.94-6.9,7.18-6.9M46.59,495.97c2.02,0,3.4-1.28,3.4-3.42s-1.53-3.45-3.4-3.45-3.35,1.25-3.35,3.45c0,1.94,1.35,3.42,3.35,3.42"/>
      <path class="cls-1" d="M70.13,480.21c1.2,0,2.07.86,2.07,2,0,1.19-.87,2.05-2.07,2.05-1.3,0-2.1-.86-2.1-2.05s.87-2,2.1-2M68.26,485.9h3.71v13.29h-3.71v-13.29Z"/>
      <path class="cls-1" d="M73.64,485.9h2.53v-3.09h3.71v3.09h4v3.45h-4v4.32c0,1.61.36,2.22,1.35,2.22.87,0,1.56-.31,2.27-.87l1.89,2.34c-.92.97-2.71,1.98-4.52,1.98-2.79,0-4.7-1.51-4.7-4.58v-5.42h-2.53v-3.45Z"/>
      <path class="cls-1" d="M66.34,487.52c-.91-.87-2.79-2-5.47-2-3.81,0-6.05,1.58-6.05,4.16,0,4.01,6.39,4.11,7.9,4.99.27.15.43.36.34.67-.28.89-3.86,1.32-6.5-1.23l-2.15,2.57c.96,1.27,3.07,2.76,6.51,2.76,3.19,0,5.94-1.29,5.94-4.24,0-2.64-2.46-3.7-4.65-4.32-.62-.17-1.22-.31-1.74-.45-.86-.22-2.02-.47-1.83-1.11.34-1.17,4.18-.44,5.52.79l2.2-2.59Z"/>
      <path class="cls-1" d="M24.98,485.93h3.71v.69c.69-.64,1.95-.97,2.97-.97,4.05,0,6.55,2.79,6.55,6.73s-2.61,7.07-6.66,7.07c-1.28,0-2.46-.2-2.87-.67v5.58h-3.71v-18.43ZM28.69,490.61v4.25c.41.61,1.31,1.13,2.36,1.13,2.07,0,3.33-1.31,3.33-3.33,0-2.36-1.18-3.56-3.12-3.56-1.23,0-2.07.61-2.56,1.51"/>
    </g>
  </g>
  <rect class="cls-2" x="309.91" y="-4.01" width="657.37" height="548.01" transform="translate(1277.18 540) rotate(180)"/>
</svg>