<?xml version="1.0" encoding="UTF-8"?>
<svg id="Artwork" xmlns="http://www.w3.org/2000/svg" xmlns:xlink="http://www.w3.org/1999/xlink" viewBox="0 0 959.76 540">
  <defs>
    <style>
      .cls-1 {
        fill: #f6a294;
      }

      .cls-2 {
        fill: #f4c23d;
      }

      .cls-3 {
        fill: #72994e;
      }

      .cls-4 {
        fill: #fff;
      }

      .cls-5 {
        fill: #94bcbe;
      }

      .cls-6 {
        fill: #213d4f;
      }

      .cls-7 {
        fill: #f2f2f2;
      }

      .cls-8 {
        clip-path: url(#clippath);
      }
    </style>
    <clipPath id="clippath">
      <rect class="cls-6" x="-3.73" y="-3.18" width="967.22" height="546.36"/>
    </clipPath>
  </defs>
  <g>
    <rect class="cls-6" x="-3.73" y="-3.18" width="967.22" height="546.36"/>
    <g class="cls-8">
      <g>
        <polygon class="cls-2" points="502.12 454.3 585.31 406.28 668.49 454.3 585.31 502.33 502.12 454.3"/>
        <polygon class="cls-5" points="502.12 454.3 585.31 502.33 585.31 598.39 502.12 550.36 502.12 454.3"/>
        <polygon class="cls-1" points="668.49 454.3 668.49 550.36 585.31 598.39 585.31 502.33 668.49 454.3"/>
        <polygon class="cls-3" points="668.49 454.3 751.68 406.28 834.87 454.3 751.68 502.33 668.49 454.3"/>
        <polygon class="cls-5" points="668.49 454.3 751.68 502.33 751.68 598.39 668.49 550.36 668.49 454.3"/>
        <polygon class="cls-2" points="834.87 454.3 834.87 550.36 751.68 598.39 751.68 502.33 834.87 454.3"/>
        <polygon class="cls-2" points="668.49 166.83 751.68 118.8 834.87 166.83 751.68 214.86 668.49 166.83"/>
        <polygon class="cls-5" points="668.49 166.83 751.68 214.86 751.68 310.91 668.49 262.88 668.49 166.83"/>
        <polygon class="cls-3" points="834.87 166.83 834.87 262.88 751.68 310.91 751.68 214.86 834.87 166.83"/>
        <polygon class="cls-4" points="585.31 310.91 668.49 262.88 751.68 310.91 668.49 358.94 585.31 310.91"/>
        <polygon class="cls-3" points="585.31 310.91 668.49 358.94 668.49 454.99 585.31 406.97 585.31 310.91"/>
        <polygon class="cls-5" points="751.68 310.91 751.68 406.97 668.49 454.99 668.49 358.94 751.68 310.91"/>
        <polygon class="cls-5" points="834.87 166.83 918.05 118.8 1001.24 166.83 918.05 214.86 834.87 166.83"/>
        <polygon class="cls-1" points="834.87 166.83 918.05 214.86 918.05 310.91 834.87 262.88 834.87 166.83"/>
        <polygon class="cls-4" points="1001.24 166.83 1001.24 262.88 918.05 310.91 918.05 214.86 1001.24 166.83"/>
      </g>
    </g>
  </g>
  <g>
    <g>
      <path class="cls-7" d="M70.76,465.78c0-5.18,4.08-8.16,8.81-8.16,2.48,0,4.44.94,5.73,2.18l-1.72,2.29c-1.23-.97-2.44-1.49-3.83-1.49-3.11,0-5.25,2.06-5.25,5.18s2.11,5.14,5.14,5.14c1.77,0,3.23-.78,4.42-1.71l1.53,2.33c-1.8,1.55-4.07,2.35-6.27,2.35-4.87,0-8.56-2.97-8.56-8.12Z"/>
      <path class="cls-7" d="M88.44,465.78c0-5.18,3.7-8.16,7.79-8.16s7.79,2.97,7.79,8.16-3.7,8.12-7.79,8.12-7.79-2.97-7.79-8.12ZM100.28,465.78c0-3.12-1.52-5.18-4.05-5.18s-4.05,2.06-4.05,5.18,1.52,5.14,4.05,5.14,4.05-2.04,4.05-5.14Z"/>
      <path class="cls-7" d="M107.68,458h2.98l.28,2.33h.13c1.48-1.5,3.23-2.71,5.59-2.71,3.59,0,5.2,2.29,5.2,6.28v9.61h-3.65v-9.13c0-2.49-.8-3.63-2.89-3.63-1.53,0-2.57.74-3.99,2.18v10.58h-3.65v-15.51Z"/>
      <path class="cls-7" d="M125.68,458.17l4.37-.17h9.41v2.89h-13.79s0-2.72,0-2.72ZM129.94,457.16c0-3.66,2.03-6.33,6.61-6.33,1.66,0,3.2.34,4.58.86l-.75,2.7c-1.12-.46-2.16-.67-3.42-.67-2.37,0-3.39,1.2-3.39,3.37v16.42h-3.63v-16.36Z"/>
      <path class="cls-7" d="M148.47,464.73c0-6.01,2.63-10.86,6.88-14.39l2.02,1.7c-3.99,3.62-5.77,7.54-5.77,12.69s1.78,9.07,5.77,12.69l-2.02,1.7c-4.25-3.53-6.88-8.37-6.88-14.39Z"/>
      <path class="cls-7" d="M160.83,471.4c6.28-5.42,10.07-8.89,10.07-12,0-2.12-1.3-3.45-3.83-3.45-1.74,0-3.21,1.03-4.43,2.21l-2.01-2.01c1.96-1.97,3.96-3.12,6.92-3.12,4.14,0,6.84,2.45,6.84,6.17s-3.63,7.26-8.29,11.42c1.21-.11,2.58-.19,3.7-.19h5.66s0,3.09,0,3.09h-14.63v-2.12Z"/>
      <path class="cls-7" d="M179.72,463.39c0-6.79,2.91-10.36,7.48-10.36,4.57,0,7.48,3.56,7.48,10.36s-2.91,10.51-7.48,10.51-7.48-3.75-7.48-10.51ZM191.37,463.39c0-5.49-1.78-7.49-4.18-7.49s-4.17,2-4.17,7.49,1.78,7.64,4.17,7.64,4.18-2.15,4.18-7.64ZM185.03,463.25c0-1.38.97-2.25,2.17-2.25s2.17.87,2.17,2.25-.97,2.27-2.17,2.27-2.17-.87-2.17-2.27Z"/>
      <path class="cls-7" d="M198.1,471.4c6.28-5.42,10.07-8.89,10.07-12,0-2.12-1.3-3.45-3.83-3.45-1.74,0-3.21,1.03-4.43,2.21l-2.01-2.01c1.96-1.97,3.96-3.12,6.92-3.12,4.14,0,6.84,2.45,6.84,6.17s-3.63,7.26-8.29,11.42c1.21-.11,2.58-.19,3.7-.19h5.66v3.09h-14.63v-2.12Z"/>
      <path class="cls-7" d="M215.96,471.11l1.7-2.35c1.33,1.15,2.92,2.16,5.2,2.16,2.54,0,4.47-1.42,4.47-3.85s-1.75-3.73-4.28-3.73c-1.5,0-2.35.33-3.74,1.11l-1.74-1.12.61-9.92h11.85v3.11h-8.68l-.43,4.83c1.04-.41,1.92-.64,3.17-.64,3.77,0,6.91,1.96,6.91,6.27s-3.67,6.92-7.66,6.92c-3.54,0-5.77-1.3-7.38-2.78Z"/>
      <path class="cls-7" d="M234.7,477.42c3.99-3.62,5.77-7.54,5.77-12.69s-1.78-9.07-5.77-12.69l2.02-1.7c4.25,3.53,6.88,8.37,6.88,14.39s-2.63,10.86-6.88,14.39l-2.02-1.7Z"/>
    </g>
    <g>
      <path class="cls-7" d="M132.42,393.61c12.12,0,20.66,8.25,20.66,19.71s-8.54,19.64-20.66,19.64c-11.76,0-20.52-8.25-20.52-19.64s8.4-19.71,20.52-19.71M132.42,423.11c5.77,0,9.71-3.65,9.71-9.78s-4.38-9.86-9.71-9.86-9.56,3.58-9.56,9.86c0,5.55,3.87,9.78,9.56,9.78"/>
      <path class="cls-7" d="M199.65,378.09c3.43,0,5.91,2.46,5.91,5.7,0,3.41-2.48,5.86-5.91,5.86-3.72,0-5.99-2.46-5.99-5.86s2.48-5.7,5.99-5.7M194.32,394.33h10.59v37.97h-10.59v-37.97Z"/>
      <path class="cls-7" d="M209.69,394.33h7.23v-8.83h10.59v8.83h11.44v9.86h-11.44v12.34c0,4.6,1.02,6.35,3.87,6.35,2.48,0,4.45-.88,6.5-2.48l5.39,6.69c-2.63,2.77-7.73,5.65-12.91,5.65-7.96,0-13.43-4.31-13.43-13.07v-15.48h-7.23v-9.86Z"/>
      <path class="cls-7" d="M188.85,398.97c-2.59-2.49-7.98-5.71-15.62-5.71-10.88,0-17.29,4.5-17.29,11.88,0,11.46,18.25,11.73,22.56,14.26.78.44,1.24,1.04.96,1.92-.81,2.54-11.04,3.78-18.58-3.51l-6.15,7.33c2.74,3.63,8.78,7.89,18.59,7.89,9.11,0,16.98-3.69,16.98-12.1,0-7.54-7.03-10.58-13.27-12.35-1.78-.49-3.5-.89-4.98-1.29-2.46-.63-5.76-1.34-5.23-3.18.96-3.34,11.94-1.25,15.78,2.27l6.27-7.41Z"/>
      <path class="cls-7" d="M70.69,394.42h10.61v1.97c1.97-1.83,5.56-2.78,8.48-2.78,11.56,0,18.72,7.97,18.72,19.24s-7.46,20.19-19.02,20.19c-3.66,0-7.02-.58-8.19-1.9v15.94h-10.61v-52.66ZM81.29,407.8v12.14c1.17,1.76,3.73,3.22,6.73,3.22,5.92,0,9.51-3.73,9.51-9.51,0-6.73-3.36-10.17-8.92-10.17-3.51,0-5.92,1.76-7.31,4.32"/>
    </g>
  </g>
</svg>